# xmcd
#
# Track frame offsets: 
#        150
#        18740
#        33517
#        50447
#        68932
#        86827
#        104640
#        125375
#        144505
#        162227
#
# Disc length: 2422 seconds
#
# Revision: 2
# Processed by: cddbd v1.5.2PL0 Copyright (c) Steve Scherf et al.
# Submitted via: ExactAudioCopyFreeDBPlugin 1.0
#
DISCID=8e09740a
DTITLE=矢沢永吉 - 東京ナイト
DYEAR=1986
DGENRE=Japanese Rock
TTITLE0=東京ナイト
TTITLE1=風芝居
TTITLE2=ISLAND HOTEL
TTITLE3=BELIEVE IN ME
TTITLE4=YOKO
TTITLE5=さまよい
TTITLE6=傘
TTITLE7=エイシャン・シー
TTITLE8=止まらないHa?Ha
TTITLE9=めざめたら
EXTD=YEAR: 1986
EXTT0=
EXTT1=
EXTT2=
EXTT3=
EXTT4=
EXTT5=
EXTT6=
EXTT7=
EXTT8=
EXTT9=
PLAYORDER=
